<svg width="893" height="1143" viewBox="0 0 893 1143" fill="none" xmlns="http://www.w3.org/2000/svg">
<g clip-path="url(#clip0)">
<path d="M348.507 875.476C447.812 875.476 528.314 865.458 528.314 853.101C528.314 840.743 447.812 830.725 348.507 830.725C249.202 830.725 168.7 840.743 168.7 853.101C168.7 865.458 249.202 875.476 348.507 875.476Z" fill="#3F3D56"/>
<path d="M652.67 661.782L583.159 694.407L644.679 648.787C634.68 633.31 623.448 618.652 611.089 604.953L309.63 679.26L581.932 576.248C569.489 565.361 556.275 555.372 542.39 546.359L83.0371 619.734C34.2654 680.217 7.67854 755.347 7.64099 832.79H699.092C699.064 772.729 683.051 713.739 652.67 661.782V661.782Z" fill="#F2F2F2"/>
<path d="M504.796 525.177C457.634 502.365 405.839 490.545 353.367 490.618C246.572 490.618 151.093 538.641 87.6749 614.095C196.272 590.498 385.348 549.65 504.796 525.177Z" fill="#F2F2F2"/>
<path opacity="0.4" d="M572.801 558.147C578.521 558.147 583.159 553.548 583.159 547.874C583.159 542.201 578.521 537.602 572.801 537.602C567.08 537.602 562.443 542.201 562.443 547.874C562.443 553.548 567.08 558.147 572.801 558.147Z" fill="#A0616A"/>
<path opacity="0.4" d="M553.63 559.986C557.643 559.986 560.897 556.76 560.897 552.781C560.897 548.801 557.643 545.575 553.63 545.575C549.618 545.575 546.364 548.801 546.364 552.781C546.364 556.76 549.618 559.986 553.63 559.986Z" fill="#A0616A"/>
<path opacity="0.4" d="M82.442 596.609C94.4229 596.609 104.135 586.977 104.135 575.095C104.135 563.214 94.4229 553.582 82.442 553.582C70.461 553.582 60.7485 563.214 60.7485 575.095C60.7485 586.977 70.461 596.609 82.442 596.609Z" fill="#A0616A"/>
<path opacity="0.4" d="M42.293 600.462C50.6975 600.462 57.5108 593.705 57.5108 585.37C57.5108 577.036 50.6975 570.279 42.293 570.279C33.8884 570.279 27.0752 577.036 27.0752 585.37C27.0752 593.705 33.8884 600.462 42.293 600.462Z" fill="#A0616A"/>
<path d="M708.122 832.102H0V833.479H708.122V832.102Z" fill="#2F2E41"/>
<path d="M627.896 832.102L572.745 750.862C572.745 750.862 656.267 779.778 646.788 832.102H627.896Z" fill="#3F3D56"/>
<path d="M630.061 832.102L685.212 750.862C685.212 750.862 601.69 779.778 611.169 832.102H630.061Z" fill="#A0616A"/>
<path d="M144.401 461.409C144.401 456.937 137.97 453.311 130.036 453.311C129.879 453.311 129.724 453.314 129.568 453.317C127.175 446.042 115.862 440.532 102.265 440.532C90.6961 440.532 80.781 444.521 76.6057 450.192C73.5209 449.382 70.3421 448.978 67.1511 448.991C54.9865 448.991 45.1252 454.551 45.1252 461.409C45.1252 467.64 53.263 472.797 63.8721 473.69C71.5813 475.088 83.6234 475.988 97.1573 475.988C120.134 475.988 136.947 471.641 137.368 468.374C141.579 466.962 144.401 464.372 144.401 461.409Z" fill="#F2F2F2"/>
<path d="M491.52 464.852C491.52 460.379 485.088 456.753 477.155 456.753C476.998 456.753 476.843 456.757 476.687 456.76C474.293 449.484 462.98 443.975 449.383 443.975C437.814 443.975 427.899 447.963 423.724 453.634C420.639 452.824 417.46 452.421 414.269 452.434C402.105 452.433 392.244 457.993 392.244 464.852C392.244 471.082 400.381 476.24 410.991 477.133C418.7 478.53 430.742 479.43 444.276 479.43C467.253 479.43 484.065 475.083 484.487 471.816C488.697 470.404 491.52 467.814 491.52 464.852Z" fill="#F2F2F2"/>
<path d="M685.212 406.645C685.212 398.794 673.923 392.429 659.998 392.429C659.723 392.429 659.45 392.436 659.177 392.441C654.976 379.671 635.118 370 611.252 370C590.946 370 573.543 377.001 566.214 386.955C560.8 385.534 555.22 384.825 549.619 384.847C528.267 384.847 510.958 394.606 510.958 406.645C510.958 417.58 525.242 426.633 543.864 428.2C557.395 430.654 578.532 432.233 602.287 432.233C642.618 432.233 672.127 424.603 672.868 418.869C680.258 416.39 685.212 411.845 685.212 406.645Z" fill="#F2F2F2"/>
<path d="M395.833 569.594C381.473 545.531 353.063 544.41 353.063 544.41C353.063 544.41 325.379 540.899 307.62 577.547C291.067 611.705 268.222 644.686 303.942 652.682L310.394 632.767L314.39 654.165C319.475 654.528 324.578 654.614 329.673 654.424C367.926 653.199 404.357 654.783 403.184 641.169C401.625 623.073 409.65 592.747 395.833 569.594Z" fill="#2F2E41"/>
<path d="M301.902 780.321C301.48 782.968 300.868 785.582 300.07 788.142C299.172 790.647 297.784 792.965 296.963 795.496C294.344 803.566 297.974 812.564 303.773 818.793C308.802 824.173 315.293 827.995 322.463 829.799C327.694 831.104 333.133 831.291 338.524 831.473C353.452 831.975 368.764 832.424 382.91 827.666C387.379 826.126 391.695 824.181 395.805 821.857C397.102 821.243 398.245 820.351 399.151 819.244C400.23 817.721 400.368 815.745 400.358 813.884C400.326 807.608 399.044 801.364 399.348 795.095C399.517 791.623 400.172 788.154 399.85 784.692C399.403 780.761 397.743 777.063 395.095 774.103C392.447 771.144 388.942 769.068 385.06 768.161C381.047 767.306 376.885 767.772 372.8 768.161C362.195 769.172 351.546 769.644 340.893 769.576C330.008 769.507 319.191 767.859 308.36 767.687C305.158 767.636 305.222 768.616 304.203 771.69C303.263 774.519 302.495 777.401 301.902 780.321V780.321Z" fill="#2F2E41"/>
<path d="M332.792 625.356C332.269 628.072 331.703 630.887 330.057 633.119C328.164 635.687 325.076 637.155 323.039 639.612C319.973 643.312 319.797 648.517 319.784 653.306C319.773 657.717 319.863 662.423 322.344 666.085C323.954 668.461 326.403 670.127 328.797 671.727C338.1 677.945 348.153 684.274 359.37 684.479C364.017 684.564 369 683.373 372.058 679.902C373.378 678.271 374.416 676.434 375.13 674.467C377.998 667.455 379.736 660.041 380.282 652.494C380.537 648.944 380.513 645.29 379.301 641.939C377.938 638.172 375.183 635.072 373.362 631.5C371.21 627.252 370.423 622.452 371.107 617.747C371.197 617.416 371.169 617.063 371.028 616.75C370.878 616.583 370.691 616.452 370.482 616.367C370.272 616.283 370.046 616.248 369.821 616.265L347.581 614.678C345.509 614.576 343.447 614.342 341.406 613.977C340.207 613.735 337.04 612.047 335.897 612.496C333.781 613.327 333.226 623.103 332.792 625.356Z" fill="#FFB8B8"/>
<path opacity="0.1" d="M332.792 625.356C332.269 628.072 331.703 630.887 330.057 633.119C328.164 635.687 325.076 637.155 323.039 639.612C319.973 643.312 319.797 648.517 319.784 653.306C319.773 657.717 319.863 662.423 322.344 666.085C323.954 668.461 326.403 670.127 328.797 671.727C338.1 677.945 348.153 684.274 359.37 684.479C364.017 684.564 369 683.373 372.058 679.902C373.378 678.271 374.416 676.434 375.13 674.467C377.998 667.455 379.736 660.041 380.282 652.494C380.537 648.944 380.513 645.29 379.301 641.939C377.938 638.172 375.183 635.072 373.362 631.5C371.21 627.252 370.423 622.452 371.107 617.747C371.197 617.416 371.169 617.063 371.028 616.75C370.878 616.583 370.691 616.452 370.482 616.367C370.272 616.283 370.046 616.248 369.821 616.265L347.581 614.678C345.509 614.576 343.447 614.342 341.406 613.977C340.207 613.735 337.04 612.047 335.897 612.496C333.781 613.327 333.226 623.103 332.792 625.356Z" fill="black"/>
<path d="M354.061 628.313C372.081 628.313 386.69 613.826 386.69 595.955C386.69 578.084 372.081 563.597 354.061 563.597C336.04 563.597 321.432 578.084 321.432 595.955C321.432 613.826 336.04 628.313 354.061 628.313Z" fill="#FFB8B8"/>
<path d="M337.368 668.43C339.069 670.193 340.871 671.938 343.099 672.971C345.368 673.901 347.805 674.361 350.259 674.323C356.141 674.487 362.517 673.419 366.609 669.225C371.883 663.82 371.709 655.101 375.843 648.794C376.176 648.223 376.631 647.73 377.176 647.35C377.869 646.975 378.653 646.797 379.441 646.833C384.663 646.785 389.211 650.143 393.316 653.343C395.155 654.777 397.039 656.262 398.199 658.277C399.011 659.847 399.567 661.535 399.846 663.278C401.883 673.139 402.543 683.222 403.197 693.267C403.559 698.815 403.921 704.369 403.894 709.929C403.805 728.246 399.512 746.256 395.243 764.078C394.693 766.374 393.94 768.941 391.835 770.041C390.896 770.459 389.888 770.703 388.86 770.761C376.632 772.185 364.379 773.611 352.069 773.799C347.265 773.872 342.463 773.757 337.663 773.453C336.836 773.442 336.017 773.3 335.236 773.033C334.175 772.528 333.264 771.761 332.59 770.805C325.931 762.484 325.538 750.979 325.581 740.356C325.685 714.383 326.621 688.431 328.388 662.5C328.534 660.359 328.566 657.76 327.011 656.076C329.811 660.522 333.705 664.633 337.368 668.43Z" fill="#D0CDE1"/>
<path d="M330.457 631.067C329.355 633.046 321.23 637.958 319.661 639.598C310.897 648.759 294.902 648.415 286.887 658.227C284.067 661.679 282.602 666.017 281.524 670.329C280 676.429 279.186 683.08 281.739 688.831C284.196 694.365 289.367 698.191 292.878 703.134C296.733 708.561 298.467 715.151 300.128 721.582C301.354 726.331 302.591 731.197 302.113 736.076C301.57 741.623 298.863 746.702 297.265 752.045C295.667 757.388 295.391 763.752 299.086 767.951C301.801 771.036 306.059 772.259 310.129 772.947C315.342 773.724 320.599 774.177 325.869 774.306C330.521 774.509 335.65 774.549 339.227 771.591C342.049 769.257 343.275 765.47 343.434 761.829C343.593 758.188 342.829 754.58 342.351 750.966C341.855 747.221 341.664 743.443 341.505 739.668C340.789 722.733 340.691 705.786 341.212 688.829C341.32 685.3 341.451 681.728 340.693 678.279C339.695 673.743 337.223 669.689 335.16 665.521C331.066 657.249 329.129 649.212 329.762 640.017C330.387 630.942 334.378 624.027 330.457 631.067Z" fill="#A0616A"/>
<path d="M376.276 631.756C377.955 633.467 383.659 634.031 385.794 635.132C387.802 636.053 389.898 636.772 392.051 637.281C399.839 639.509 407.248 642.881 414.03 647.285C415.439 648.102 416.685 649.17 417.705 650.433C418.9 652.081 419.334 654.138 419.739 656.127C420.784 661.263 421.835 666.461 421.6 671.696C421.351 677.252 419.663 682.634 417.989 687.942L411.733 707.776C407.063 722.581 402.364 737.532 401.05 752.99C400.323 761.557 400.646 770.18 402.012 778.669C402.15 779.523 402.265 780.501 401.697 781.157C401.285 781.561 400.742 781.808 400.165 781.856C397.145 782.324 394.223 780.797 391.488 779.446C383.126 775.32 374.203 772.424 364.999 770.851C368.595 765.696 371.37 760.023 373.226 754.031C374.28 750.227 375.11 746.364 375.712 742.464L378.622 725.772C379.806 719.671 380.64 713.508 381.119 707.313C381.339 704.988 381.202 702.644 380.714 700.36C380.043 698.186 379.152 696.085 378.056 694.089C373.259 684.195 371.009 672.905 372.896 662.088C373.722 657.354 375.327 652.614 374.658 647.856C374.014 643.281 374.683 639.725 373.499 635.198C368.64 616.609 373.118 628.537 376.276 631.756Z" fill="#A0616A"/>
<path d="M286.804 673.87C284.617 678.369 280.962 682.203 279.718 687.043C279.233 689.305 279.026 691.617 279.1 693.928C279.07 697.411 279.051 700.965 280.13 704.281C280.824 706.415 281.954 708.384 282.768 710.476C283.902 713.399 284.408 716.526 284.251 719.654C284.032 723.989 282.547 728.196 282.431 732.534C282.249 739.357 285.43 745.77 288.535 751.861C289.317 749.942 290.512 748.215 292.036 746.802C293.561 745.388 295.379 744.322 297.362 743.678C299.345 743.034 301.447 742.828 303.519 743.073C305.592 743.319 307.585 744.011 309.359 745.1C310.178 744.35 310.266 743.118 310.298 742.013C310.527 734.098 310.749 726.183 310.962 718.267C311.298 706.026 311.618 693.62 308.779 681.702C307.497 676.321 305.502 670.961 301.845 666.788C299.919 664.59 293.382 658.801 290.221 661.263C288.799 662.37 289.131 665.384 288.906 666.91C288.566 669.323 287.857 671.669 286.804 673.87V673.87Z" fill="#A0616A"/>
<path d="M422.239 660.903C423.273 664.097 423.335 667.509 423.356 670.863C423.398 677.705 423.306 684.547 423.082 691.387C422.966 694.889 422.808 698.439 421.737 701.778C421.031 703.98 419.941 706.045 419.212 708.24C417.027 714.817 418.221 721.95 418.408 728.872C418.54 731.113 418.348 733.361 417.836 735.547C416.682 739.838 413.583 743.306 411.419 747.194C409.365 750.887 408.125 755.027 405.671 758.472C403.217 761.917 398.97 764.647 394.852 763.59C391.733 762.788 389.516 760.05 387.983 757.239C384.637 751.058 383.493 743.939 384.735 737.033C386.274 728.632 391.251 721.178 393.046 712.826C395.51 701.357 391.765 689.522 391.876 677.796C391.825 675.958 392.077 674.124 392.62 672.366C393.562 669.688 395.584 667.549 397.451 665.401C399.786 662.716 401.954 659.894 403.944 656.95C405.282 654.972 407.098 649.886 409.468 649.463C414.761 648.519 420.926 656.848 422.239 660.903Z" fill="#A0616A"/>
<path d="M259.339 775.221C256.412 774.491 253.397 774.173 250.38 774.276C247.211 774.45 244.116 775.291 241.3 776.743C238.484 778.195 236.012 780.225 234.048 782.698C232.084 785.17 230.674 788.029 229.911 791.085C229.147 794.14 229.049 797.321 229.621 800.417C230.352 803.77 231.547 807.008 233.171 810.037C235.547 814.819 238.397 819.589 242.795 822.654C245.368 824.446 248.346 825.564 251.289 826.663L274.454 835.318C277.862 836.591 281.271 837.864 284.713 839.045C302.003 844.972 320.03 848.526 338.292 849.608C343.854 849.936 349.501 850.028 354.928 848.772C356.215 848.474 357.589 848.03 358.335 846.947C358.776 846.184 359.036 845.331 359.096 844.453L360.521 834.557C360.722 833.163 360.915 831.696 360.4 830.385C359.747 828.721 358.11 827.675 356.55 826.786C341.32 818.111 323.537 813.326 310.718 801.42C307.7 798.617 305.175 794.174 301.508 792.27C297.35 790.111 292.453 788.879 288.155 786.89C278.76 782.54 269.522 777.542 259.339 775.221Z" fill="#2F2E41"/>
<path opacity="0.1" d="M282.467 788.563C290.655 791.107 325.225 808.735 331.151 814.89C330.357 815.174 303.409 800.197 302.6 799.956C295.25 797.769 287.858 795.567 280.878 792.365C279.474 791.721 271.756 788.694 272.105 786.937C272.5 784.954 281.013 788.111 282.467 788.563Z" fill="black"/>
<path d="M384.619 854.74C385.084 854.774 385.545 854.64 385.917 854.362C386.08 854.154 386.2 853.916 386.27 853.661C386.339 853.407 386.357 853.142 386.323 852.88C386.31 848.386 386.297 843.892 386.285 839.398C382.375 837.55 378.002 836.958 373.71 836.389L353.682 833.734C354.142 833.795 350.55 842.289 351.101 843.423C352.072 845.421 359.489 847.193 361.583 848.136C368.86 851.417 376.423 855.023 384.619 854.74Z" fill="#FFB8B8"/>
<path d="M321.782 839.351C318.001 839.948 313.78 840.476 311.331 843.395C308.226 847.097 309.548 852.616 311.029 857.202C311.249 858.129 311.691 858.991 312.317 859.714C313.329 860.703 314.878 860.848 316.295 860.937C319.744 861.154 323.414 861.323 326.427 859.646C327.792 858.751 329.106 857.783 330.363 856.744C332.585 855.278 335.027 854.171 337.599 853.464C342.327 851.989 347.194 850.994 352.125 850.495C354.067 850.407 355.991 850.071 357.847 849.495C359.665 848.815 361.348 847.469 361.877 845.615C362.575 843.164 361.139 840.666 359.761 838.518C358.046 835.841 356.228 833.022 353.67 831.052C349.939 828.177 348.093 830.384 344.333 832.224C337.219 835.706 329.617 838.108 321.782 839.351V839.351Z" fill="#FFB8B8"/>
<path d="M311.9 842.729L287.889 835.691C284.969 834.835 281.999 833.972 278.954 833.974C275.909 833.976 272.723 834.966 270.749 837.265C268.887 839.432 268.354 842.394 267.89 845.203L266.897 851.213C266.392 854.267 265.887 857.38 266.341 860.442C266.795 863.504 268.371 866.563 271.111 868.046C274.433 869.843 278.506 868.965 282.214 868.213C289.704 866.695 297.323 865.885 304.968 865.794C307.841 865.76 310.856 865.795 313.395 864.461C316.414 862.874 318.22 859.519 318.531 856.145C319.003 851.011 317.278 844.305 311.9 842.729Z" fill="#2F2E41"/>
<path d="M394.057 836.596C397.17 836.055 399.917 834.3 402.9 833.265C407.098 831.807 411.647 831.807 416.095 831.823C417.728 831.829 419.467 831.866 420.826 832.763C422.785 834.057 423.287 836.645 423.62 838.956L425.63 852.897C426.008 855.52 426.384 858.212 425.795 860.795C425.205 863.379 423.429 865.87 420.844 866.536C417.704 867.346 414.626 865.357 411.662 864.05C404.252 860.784 395.639 861.619 387.914 859.178C386.48 858.725 384.944 858.032 384.359 856.658C384.095 855.883 384.001 855.062 384.083 854.248C384.215 849.767 383.262 843.648 384.623 839.365C385.846 835.514 390.583 836.596 394.057 836.596Z" fill="#2F2E41"/>
<path d="M444.869 769.609C449.667 768.416 454.64 768.079 459.557 768.614C463.484 769.043 467.529 770.127 470.396 772.822C473.886 776.103 475.007 781.176 475.101 785.943C475.254 795.439 472.078 804.693 466.116 812.124C464.66 814.004 462.928 815.657 460.979 817.028C458.876 818.333 456.635 819.404 454.296 820.222L402.417 840.515C388.769 845.853 375.073 851.207 360.837 854.727C360.448 854.913 360.025 855.02 359.593 855.042C359.161 855.064 358.73 855 358.323 854.854C357.917 854.708 357.544 854.483 357.227 854.191C356.91 853.9 356.655 853.549 356.476 853.159C351.931 846.72 348.117 839.802 345.106 832.532C344.963 832.359 344.865 832.155 344.819 831.936C344.772 831.718 344.78 831.492 344.841 831.277C344.902 831.062 345.014 830.864 345.168 830.701C345.322 830.538 345.513 830.415 345.725 830.341L382.42 809.432C385.048 807.934 387.706 806.415 389.888 804.329C391.474 802.805 392.773 801.012 393.723 799.035C394.483 797.459 394.554 793.741 395.526 792.577C396.477 791.437 399.731 791.346 401.234 790.897C403.353 790.253 405.429 789.475 407.448 788.568C415.656 784.926 422.966 779.635 430.834 775.371C435.248 772.869 439.964 770.933 444.869 769.609V769.609Z" fill="#2F2E41"/>
<path opacity="0.1" d="M424.067 785.224C417.762 789.919 409.6 794.236 403.351 799.055C401.219 800.7 365.671 820.52 365.168 823.152C370.998 824.126 408.13 798.364 413.443 795.794C418.755 793.223 423.465 789.598 428.132 786C429.321 785.083 434.361 782.326 430.947 781.302C429.024 780.725 425.487 784.285 424.067 785.224Z" fill="black"/>
<path d="M389.484 567.274L361.416 552.695L322.656 558.659L314.636 593.784L334.599 593.023L340.176 580.118V592.81L349.387 592.458L354.733 571.914L358.075 593.784L390.821 593.121L389.484 567.274Z" fill="#2F2E41"/>
<path d="M383.219 639.329H322.82V711.619H383.219V639.329Z" fill="#3F3D56"/>
<path d="M294.147 765.06C295.534 767.113 297.159 769.121 299.386 770.229C300.807 770.872 302.357 771.185 303.917 771.144C305.478 771.102 307.009 770.707 308.393 769.99C311.156 768.52 313.418 766.271 314.892 763.527C317.943 758.185 318.574 751.793 318.194 745.666C317.813 739.538 316.494 733.505 315.91 727.393C315.485 722.951 315.451 718.481 315.417 714.019C315.311 713.08 315.51 712.133 315.983 711.314C316.659 710.399 317.896 710.147 318.992 709.824C325.149 708.01 329.235 702.287 332.165 696.62C334.121 692.835 335.822 688.698 335.445 684.462C335.068 680.225 331.997 675.958 327.731 675.525C324.214 675.169 320.966 677.385 318.429 679.826C312.029 686.025 307.916 694.177 306.75 702.973C306.193 707.28 306.353 711.705 305.171 715.887C302.649 724.815 294.757 730.29 290.823 738.324C286.49 747.177 288.882 757.227 294.147 765.06Z" fill="#FFB8B8"/>
<path d="M410.288 730.949C409.391 733.02 408.084 734.891 406.445 736.453C404.806 738.014 402.869 739.235 400.746 740.041C398.109 741.092 395.199 741.269 392.451 740.545C391.089 740.17 389.832 739.489 388.778 738.554C387.724 737.619 386.902 736.456 386.375 735.155C385.955 733.844 385.724 732.481 385.69 731.106C385.296 725.085 385.448 718.881 387.654 713.257C388.504 711.088 389.651 709.031 390.323 706.801C390.982 704.226 391.32 701.579 391.327 698.922L392.052 682.494C392.172 681.301 392.089 680.097 391.806 678.931C391.083 676.554 388.843 675.009 386.787 673.592C381.823 670.168 376.917 666.173 374.512 660.672C373.686 659.015 373.39 657.148 373.664 655.32C374.342 652.058 377.662 649.946 380.943 649.234C383.09 648.769 385.31 648.739 387.468 649.147C389.627 649.555 391.681 650.392 393.504 651.608C395.328 652.823 396.885 654.393 398.081 656.221C399.277 658.049 400.088 660.099 400.464 662.246C400.788 664.1 400.784 665.994 400.974 667.866C401.377 671.838 402.648 675.666 403.444 679.579C405.403 689.218 404.388 699.181 406.325 708.818C407.945 716.875 414.053 722.133 410.288 730.949Z" fill="#FFB8B8"/>
<path d="M36.5383 831.427L35.1498 831.4C35.6868 816.09 37.334 800.838 40.0786 785.763C46.0827 753.487 56.0664 732.289 69.7525 722.759L70.5498 723.886C38.5789 746.147 36.5545 830.576 36.5383 831.427Z" fill="#2F2E41"/>
<path d="M53.8942 831.097L52.5057 831.071C52.5356 829.546 53.4034 793.608 67.6698 783.675L68.4671 784.802C54.7762 794.334 53.901 830.731 53.8942 831.097Z" fill="#2F2E41"/>
<path d="M78.4487 724.011C82.2829 724.011 85.3911 720.929 85.3911 717.127C85.3911 713.324 82.2829 710.242 78.4487 710.242C74.6146 710.242 71.5063 713.324 71.5063 717.127C71.5063 720.929 74.6146 724.011 78.4487 724.011Z" fill="#A0616A"/>
<path d="M75.0107 783.22C78.8449 783.22 81.9531 780.138 81.9531 776.335C81.9531 772.533 78.8449 769.451 75.0107 769.451C71.1766 769.451 68.0684 772.533 68.0684 776.335C68.0684 780.138 71.1766 783.22 75.0107 783.22Z" fill="#A0616A"/>
<path d="M50.6582 728.138C51.9629 736.403 48.5623 743.795 48.5623 743.795C48.5623 743.795 43.0464 737.787 41.7417 729.523C40.437 721.258 43.8375 713.866 43.8375 713.866C43.8375 713.866 49.3535 719.874 50.6582 728.138Z" fill="#2F2E41"/>
<path d="M73.3508 748.21C65.3719 750.924 57.4397 748.891 57.4397 748.891C57.4397 748.891 62.4437 742.458 70.4225 739.744C78.4014 737.03 86.3336 739.063 86.3336 739.063C86.3336 739.063 81.3296 745.496 73.3508 748.21Z" fill="#2F2E41"/>
<path d="M73.6071 800.645C69.9959 801.77 66.1502 801.935 62.4547 801.123C64.8012 798.16 67.9614 795.933 71.5546 794.711C75.1479 793.489 79.0209 793.323 82.707 794.234C80.2921 797.124 77.1542 799.335 73.6071 800.645V800.645Z" fill="#2F2E41"/>
</g>
<path d="M382.187 13.7275L893 -1.86165e-06V1143H160L382.187 13.7275Z" fill="#A0616A" fill-opacity="0.13"/>
<defs>
<clipPath id="clip0">
<rect width="708.122" height="505.476" fill="white" transform="translate(0 370)"/>
</clipPath>
</defs>
</svg>
